<?xml version="1.0" encoding="UTF-8"?>
<svg version="1.1" xmlns="http://www.w3.org/2000/svg" width="307" height="383">
<path d="M0 0 C3.37811261 1.34485535 6.76555605 2.66549948 10.15228271 3.98847961 C12.01105841 4.71499677 13.8693213 5.44282706 15.72711182 6.17185974 C26.8597894 10.53723351 38.03784004 14.78308348 49.21359253 19.03665161 C53.95591896 20.84322909 58.69583546 22.6560829 63.43583679 24.46875 C71.49930292 27.55232112 79.56304301 30.63417596 87.64590454 33.66661072 C90.57003698 34.76469759 93.4910208 35.87098003 96.41137695 36.97906494 C98.28656234 37.68672139 100.16639433 38.38202753 102.04638672 39.07681274 C107.81461659 41.27215214 112.48387132 43.230655 116.79833984 47.7147522 C133.66286349 98.30832314 106.08393736 183.26963814 83.53100586 228.50796509 C75.09183023 244.98193629 65.09313507 260.83051577 52.79833984 274.7147522 C52.12029297 275.50108032 51.44224609 276.28740845 50.74365234 277.0975647 C35.96236613 293.93631932 19.75860176 307.81441346 0.79833984 319.7147522 C0.11916504 320.14658813 -0.56000977 320.57842407 -1.25976562 321.02334595 C-16.01877976 330.30063718 -16.01877976 330.30063718 -22.54150391 329.5819397 C-50.78518893 320.37474722 -78.17878356 293.51223992 -96.20166016 270.7147522 C-96.75708496 270.0125354 -97.31250977 269.3103186 -97.88476562 268.58682251 C-128.36637549 229.594169 -145.46609719 182.61715337 -153.57666016 134.1522522 C-153.69826508 133.43177704 -153.81987 132.71130188 -153.94515991 131.96899414 C-157.13390295 112.80884106 -158.57534313 93.7467463 -158.57226562 74.32461548 C-158.57673586 71.16118127 -158.61351639 67.99904398 -158.65087891 64.83584595 C-158.65673228 62.80590271 -158.66071155 60.775953 -158.66259766 58.7460022 C-158.67696869 57.80961914 -158.69133972 56.87323608 -158.70614624 55.90847778 C-158.67776497 51.88270387 -158.54857045 49.34832742 -156.59057617 45.77236938 C-153.69718059 43.28023469 -151.09475452 42.10831446 -147.51806641 40.7616272 C-146.8479805 40.50452972 -146.17789459 40.24743225 -145.48750305 39.98254395 C-143.25158934 39.12880804 -141.00817008 38.29695026 -138.76416016 37.4647522 C-137.16029766 36.85720917 -135.55695652 36.24828827 -133.95410156 35.63809204 C-130.51173381 34.33089094 -127.06596296 33.03327241 -123.6171875 31.74307251 C-118.16706542 29.70413004 -112.72484469 27.64467594 -107.28369141 25.5819397 C-99.76322844 22.73286156 -92.2393837 19.89290569 -84.71337891 17.0585022 C-71.31202557 12.0096449 -57.93091035 6.90790983 -44.55078125 1.8031311 C-43.71133469 1.48291992 -42.87188812 1.16270874 -42.00700378 0.83279419 C-40.45882111 0.24214707 -38.91072712 -0.3487326 -37.36274719 -0.93991089 C-35.98346969 -1.46626123 -34.60346802 -1.99071889 -33.22265625 -2.51303101 C-31.82524731 -3.04697694 -30.43223239 -3.5925142 -29.04296875 -4.14730835 C-18.4840066 -8.29908009 -9.92606903 -3.95195484 0 0 Z " fill="#7853A4" transform="translate(178.20166015625,30.285247802734375)"/>
<path d="M0 0 C0.69976959 0.27521988 1.39953918 0.55043976 2.12051392 0.83399963 C4.28592549 1.69152509 6.434306 2.58351794 8.58203125 3.484375 C9.38266998 3.81717468 10.18330872 4.14997437 11.00820923 4.49285889 C13.61090368 5.57556526 16.21171532 6.66271514 18.8125 7.75 C20.62431562 8.50483272 22.4362475 9.2593864 24.24829102 10.01367188 C27.97451238 11.56534446 31.69996279 13.11884709 35.42480469 14.67382812 C40.82545526 16.92804136 46.22883983 19.17563983 51.6328125 21.421875 C54.90113771 22.78101916 58.1693323 24.14047715 61.4375 25.5 C62.21815826 25.82464233 62.99881653 26.14928467 63.8031311 26.48376465 C65.99277046 27.39466392 68.18199855 28.3065439 70.37109375 29.21875 C71.01809235 29.48774109 71.66509094 29.75673218 72.33169556 30.03387451 C74.58379378 30.97320056 76.81672944 31.90836472 79 33 C80.40802993 95.03996501 69.14916215 157.52254777 25.55859375 204.4453125 C21.32383878 208.6736022 16.74355156 212.36155378 12 216 C10.97132813 216.79792969 9.94265625 217.59585938 8.8828125 218.41796875 C-5.15920721 229.15083419 -5.15920721 229.15083419 -9.3359375 228.80859375 C-18.50042452 226.02699725 -26.75067109 218.07177294 -34 212 C-35.06541016 211.12021484 -35.06541016 211.12021484 -36.15234375 210.22265625 C-40.92393164 206.1837498 -45.01667199 201.80989056 -49 197 C-49.92232422 195.92685547 -49.92232422 195.92685547 -50.86328125 194.83203125 C-74.29870865 166.79405498 -85.55385579 131.37747271 -92 96 C-92.16661133 95.12698242 -92.33322266 94.25396484 -92.50488281 93.35449219 C-96.24400476 73.14155758 -95.28666036 52.46460947 -95 32 C-92.82480557 31.11123857 -90.64958104 30.22255093 -88.47431946 29.33395386 C-86.51191372 28.53223622 -84.54958512 27.73032973 -82.58732605 26.92825317 C-77.09639406 24.68449718 -71.6036134 22.44544374 -66.10742188 20.21459961 C-51.74538022 14.38156053 -51.74538022 14.38156053 -37.46208191 8.35917664 C-34.09611786 6.91393925 -30.72209566 5.48812438 -27.34725952 4.06375122 C-25.79303797 3.4007797 -24.24312302 2.72761191 -22.69790649 2.04391479 C-20.55872566 1.09822368 -18.40730246 0.18857173 -16.25 -0.71484375 C-15.05890625 -1.23167725 -13.8678125 -1.74851074 -12.640625 -2.28100586 C-7.66363695 -3.26392095 -4.57541122 -1.93344623 0 0 Z " fill="#9C81D4" transform="translate(166,79)"/>
<path d="M0 0 C0.33 0 0.66 0 1 0 C1.22550537 1.5303186 1.22550537 1.5303186 1.45556641 3.09155273 C8.13576333 48.12935318 17.79350895 91.78267718 44 130 C44.66386719 130.97582031 45.32773438 131.95164062 46.01171875 132.95703125 C61.40179588 154.77785055 80.48738365 171.83546939 103 186 C104.03769531 186.65742188 105.07539063 187.31484375 106.14453125 187.9921875 C107.55798828 188.83136719 107.55798828 188.83136719 109 189.6875 C109.804375 190.16574219 110.60875 190.64398438 111.4375 191.13671875 C116.15378731 192.72558993 119.89215081 191.51576827 124.2890625 189.46875 C125.38992187 188.8190625 126.49078125 188.169375 127.625 187.5 C128.21748535 187.15195312 128.8099707 186.80390625 129.42041016 186.4453125 C135.83070319 182.61847443 141.93756779 178.35044969 148 174 C146.44152344 173.92652344 146.44152344 173.92652344 144.8515625 173.8515625 C137.08046683 173.44790554 129.58427772 172.87783799 122 171 C122.33 170.34 122.66 169.68 123 169 C125.07861328 168.5769043 125.07861328 168.5769043 127.8203125 168.32421875 C128.82400879 168.22117432 129.82770508 168.11812988 130.86181641 168.01196289 C131.93866699 167.90489014 133.01551758 167.79781738 134.125 167.6875 C146.49890166 166.30173292 157.66212529 164.3110195 168 157 C168.33 157.66 168.66 158.32 169 159 C168.01 159.66 167.02 160.32 166 161 C166.99 165.455 166.99 165.455 168 170 C168.66 169.67 169.32 169.34 170 169 C170.66 169.33 171.32 169.66 172 170 C172 169.34 172 168.68 172 168 C172.65226563 167.82984375 173.30453125 167.6596875 173.9765625 167.484375 C179.40532755 165.97905372 183.45334305 164.29632629 188 161 C188.66 161 189.32 161 190 161 C190 160.34 190 159.68 190 159 C190.66 159 191.32 159 192 159 C191.53893278 163.36965982 188.64795099 165.91414379 185.75 168.9375 C185.2142334 169.50452637 184.6784668 170.07155273 184.12646484 170.65576172 C182.42636186 172.44573363 180.71386877 174.22321459 179 176 C178.46729492 176.55993652 177.93458984 177.11987305 177.38574219 177.69677734 C165.29250251 190.38384812 151.82669557 200.69407899 137 210 C136.3208252 210.43183594 135.64165039 210.86367188 134.94189453 211.30859375 C120.1828804 220.58588499 120.1828804 220.58588499 113.66015625 219.8671875 C85.41647122 210.65999502 58.02287659 183.79748773 40 161 C39.4445752 160.2977832 38.88915039 159.59556641 38.31689453 158.87207031 C14.74690846 128.72089706 -0.57721251 93.84600023 -10.5 57.0625 C-10.83862061 55.81267334 -11.17724121 54.56284668 -11.52612305 53.27514648 C-14.34736511 42.45563566 -16.31095702 34.24526109 -12 23.6875 C-11.68401855 22.87297363 -11.36803711 22.05844727 -11.04248047 21.21923828 C-4.31011256 4.31011256 -4.31011256 4.31011256 0 0 Z " fill="#673D96" transform="translate(42,140)"/>
<path d="M0 0 C3.28980503 0.59344856 6.3035665 1.38535633 9.4230957 2.58227539 C10.26358963 2.90253189 11.10408356 3.22278839 11.970047 3.55274963 C13.30938545 4.06997841 13.30938545 4.06997841 14.67578125 4.59765625 C15.6009404 4.95137802 16.52609955 5.30509979 17.47929382 5.66954041 C20.42513296 6.79681707 23.36882759 7.92957898 26.3125 9.0625 C28.31301197 9.82913904 30.31366149 10.59541926 32.31445312 11.36132812 C37.21123736 13.23672922 42.10627377 15.1166347 47 17 C47.86255877 71.57542321 47.86255877 71.57542321 43 96 C42.79101074 97.11165527 42.58202148 98.22331055 42.36669922 99.36865234 C37.35022415 125.7211165 28.73911976 170.49124874 6 188 C4.75500041 189.72058709 4.75500041 189.72058709 3.9375 191.5 C2.32497353 194.55020068 0.4889879 196.58879297 -2 199 C-2.66 199.99 -3.32 200.98 -4 202 C-6 205 -6 205 -7.94921875 206.8515625 C-10.20690295 209.21675547 -11.38715291 211.44215324 -12.8125 214.375 C-17.38382864 222.84209147 -22.12456464 226.25653859 -31.30737305 229.30908203 C-40.50795478 232.01546305 -50.18485571 232.74804876 -59.69433594 233.69042969 C-62.15453021 233.94752501 -62.15453021 233.94752501 -65 235 C-65.66 234.01 -66.32 233.02 -67 232 C-63.92469978 228.69442368 -60.63487835 226.29945568 -56.875 223.8125 C-51.57409198 220.23818199 -46.80958759 216.35258035 -42.1328125 211.9765625 C-40 210 -40 210 -36.9375 207.625 C-32.381992 203.55412051 -28.74388914 198.8126575 -25 194 C-24.33871094 193.154375 -23.67742187 192.30875 -22.99609375 191.4375 C10.90615032 146.50846544 17.16759873 90.47859353 18 36 C17.34 35.67 16.68 35.34 16 35 C15.86851562 34.14664063 15.73703125 33.29328125 15.6015625 32.4140625 C14.88184998 28.3294603 13.26616617 25.01664157 11.375 21.375 C11.02179688 20.68075928 10.66859375 19.98651855 10.3046875 19.27124023 C7.48111155 13.78102369 4.43805531 8.44748905 1.25 3.16015625 C0 1 0 1 0 0 Z " fill="#825FA9" transform="translate(227,76)"/>
<path d="M0 0 C4.39089063 1.56005761 6.69275783 5.00678042 9.4375 8.5625 C9.95900635 9.22580322 10.4805127 9.88910645 11.01782227 10.57250977 C15.42665165 16.20064884 19.74855195 21.89628194 24.07202148 27.59008789 C28.30525548 33.14569636 32.68405129 38.56760987 37.11376953 43.96704102 C41.68505668 49.56068942 46.08270233 55.27601911 50.44799805 61.03125 C54.11662709 65.86467583 57.86119792 70.61820447 61.70703125 75.3125 C63 77 63 77 63 78 C22.41 78 -18.18 78 -60 78 C-58.12626469 74.25252938 -56.12802305 71.41707918 -53.5625 68.125 C-53.12220459 67.55837646 -52.68190918 66.99175293 -52.22827148 66.40795898 C-50.82289284 64.60210567 -49.41213716 62.80057186 -48 61 C-47.54882812 60.42362793 -47.09765625 59.84725586 -46.6328125 59.25341797 C-43.89172946 55.75279349 -41.14299328 52.25825382 -38.39111328 48.76611328 C-36.09125763 45.84628952 -33.79584055 42.92298107 -31.5 40 C-30.5833549 38.83331639 -29.66668823 37.66664973 -28.75 36.5 C-28.29625 35.9225 -27.8425 35.345 -27.375 34.75 C-25.3125 32.125 -25.3125 32.125 -23.25 29.5 C-22.79568604 28.9217749 -22.34137207 28.3435498 -21.87329102 27.74780273 C-20.96234975 26.58843767 -20.05137999 25.42909499 -19.14038086 24.26977539 C-16.76087385 21.24158315 -14.38195531 18.2129311 -12.00390625 15.18359375 C-11.51148438 14.55646484 -11.0190625 13.92933594 -10.51171875 13.28320312 C-9.57533586 12.09064001 -8.63912577 10.89794118 -7.703125 9.70507812 C-5.15207165 6.45653134 -2.58541193 3.2212673 0 0 Z " fill="#F3F3F4" transform="translate(157,128)"/>
<path d="M0 0 C14.14260424 -0.1401605 28.28510081 -0.24556687 42.42825699 -0.31087303 C48.99522199 -0.34221358 55.56172113 -0.38473807 62.12841797 -0.45263672 C68.46320944 -0.51772915 74.79755225 -0.5536855 81.13265228 -0.56926346 C83.55208147 -0.58036777 85.97148551 -0.60205163 88.39072418 -0.63438034 C91.77437299 -0.67780686 95.15615738 -0.68393955 98.54003906 -0.68115234 C99.54488846 -0.702724 100.54973785 -0.72429565 101.58503723 -0.746521 C102.9689994 -0.73414902 102.9689994 -0.73414902 104.38092041 -0.7215271 C105.58109488 -0.72982324 105.58109488 -0.72982324 106.80551529 -0.73828697 C109 0 109 0 113 6 C74.72 6 36.44 6 -3 6 C-2 4 -1 2 0 0 Z " fill="#4B4B4D" transform="translate(103,206)"/>
<path d="M0 0 C0.66 0.33 1.32 0.66 2 1 C1.1875 2.9375 1.1875 2.9375 0 5 C-0.99 5.33 -1.98 5.66 -3 6 C-3.70181761 7.31517081 -4.36144587 8.65297705 -5 10 C-7.04719926 12.63916049 -9.181409 15.19265065 -11.3203125 17.7578125 C-13.19985124 19.79985101 -13.19985124 19.79985101 -13 22 C-13.5775 22.53625 -14.155 23.0725 -14.75 23.625 C-17.71207396 26.75163362 -19.22889042 30.10742785 -21 34 C-21.34740234 34.74950928 -21.69480469 35.49901855 -22.05273438 36.27124023 C-24.83482453 42.38413955 -27.11093306 48.54983066 -29 55 C-29.66 55 -30.32 55 -31 55 C-31.66909626 50.70870842 -32.3348667 46.41690747 -33 42.125 C-33.19078125 40.90167969 -33.3815625 39.67835938 -33.578125 38.41796875 C-33.75859375 37.25136719 -33.9390625 36.08476562 -34.125 34.8828125 C-34.37636719 33.26463623 -34.37636719 33.26463623 -34.6328125 31.61376953 C-35 29 -35 29 -35 27 C-33.34002791 25.98892609 -31.67169686 24.99156814 -30 24 C-28.09135365 22.35065154 -26.21735363 20.6605828 -24.375 18.9375 C-21.63688797 16.38317906 -19.1171591 14.07810607 -16 12 C-15.67 11.01 -15.34 10.02 -15 9 C-14.01 9 -13.02 9 -12 9 C-10.64631404 7.68733482 -9.31200404 6.35432675 -8 5 C-7.34 5 -6.68 5 -6 5 C-5.505 4.505 -5.01 4.01 -4.5 3.5 C-4.005 3.005 -3.51 2.51 -3 2 C-2.34 2 -1.68 2 -1 2 C-0.67 1.34 -0.34 0.68 0 0 Z " fill="#805EA0" transform="translate(57,118)"/>
<path d="M0 0 C0.495 0.99 0.495 0.99 1 2 C-0.37986859 4.5469821 -1.81012111 6.94444938 -3.375 9.375 C-3.82746094 10.0872876 -4.27992188 10.7995752 -4.74609375 11.53344727 C-15.96276209 28.98138105 -15.96276209 28.98138105 -20 31 C-20.66 30.67 -21.32 30.34 -22 30 C-22 30.66 -22 31.32 -22 32 C-28.625 36 -28.625 36 -32 36 C-32.66 32.37 -33.32 28.74 -34 25 C-33.03320312 24.443125 -32.06640625 23.88625 -31.0703125 23.3125 C-19.62673639 16.63879974 -9.80962007 8.90922016 0 0 Z " fill="#BCAACD" transform="translate(254,269)"/>
<path d="M0 0 C0.33333333 2.33333333 0.66666667 4.66666667 1 7 C1.66 7.33 2.32 7.66 3 8 C-2.73066537 9.30493857 -8.33550592 9.18408776 -14.1875 9.1875 C-15.81655273 9.20586914 -15.81655273 9.20586914 -17.47851562 9.22460938 C-24.22934438 9.23677303 -30.44386326 8.62636421 -37 7 C-36.67 6.34 -36.34 5.68 -36 5 C-33.84204102 4.54516602 -33.84204102 4.54516602 -31.00390625 4.25390625 C-29.45219727 4.08084961 -29.45219727 4.08084961 -27.86914062 3.90429688 C-25.69989762 3.68006916 -23.53062767 3.45610194 -21.36132812 3.23242188 C-15.27713181 2.55390091 -9.73076015 1.52191893 -3.94116211 -0.49633789 C-2 -1 -2 -1 0 0 Z " fill="#592B81" transform="translate(201,304)"/>
<path d="M0 0 C4.70371502 2.12787108 8.2439596 4.5122482 12 8 C12 8.66 12 9.32 12 10 C13.65 10.33 15.3 10.66 17 11 C17 11.99 17 12.98 17 14 C18.65 14 20.3 14 22 14 C22 15.32 22 16.64 22 18 C22.66 18 23.32 18 24 18 C24 18.66 24 19.32 24 20 C25.32 20.33 26.64 20.66 28 21 C28.33 22.65 28.66 24.3 29 26 C29.99 26 30.98 26 32 26 C32 26.66 32 27.32 32 28 C32.66 28 33.32 28 34 28 C34 28.66 34 29.32 34 30 C34.66 30.33 35.32 30.66 36 31 C31.34548286 30.48860985 28.23702268 28.40230185 24.5625 25.6875 C23.65866577 25.02959473 23.65866577 25.02959473 22.73657227 24.35839844 C18.16948274 20.98202918 13.76677459 17.42516571 9.4375 13.75 C8.86652588 13.26748779 8.29555176 12.78497559 7.70727539 12.2878418 C4.05943468 9.12724414 1.0026723 5.77990033 -2 2 C-1.34 1.34 -0.68 0.68 0 0 Z " fill="#B29DCD" transform="translate(109,294)"/>
<path d="M0 0 C2.48757119 10.97457876 4.19072247 19.4531137 -1 30 C-1.66 30 -2.32 30 -3 30 C-4.73174157 21.55775985 -6.3068475 12.59418356 -5 4 C-1.74025974 0 -1.74025974 0 0 0 Z " fill="#B5A1C7" transform="translate(29,143)"/>
<path d="M0 0 C0.72703125 0.15082031 1.4540625 0.30164063 2.203125 0.45703125 C-1.70321439 4.70670125 -5.88209291 7.64760232 -10.796875 10.64453125 C-11.49554688 11.08216797 -12.19421875 11.51980469 -12.9140625 11.97070312 C-16.45012795 14.1557247 -19.8524655 16.07802871 -23.796875 17.45703125 C-19.54072913 7.34242578 -11.33937905 -1.32292756 0 0 Z " fill="#B6A2D6" transform="translate(188.796875,312.54296875)"/>
<path d="M0 0 C0.33 3.96 0.66 7.92 1 12 C-4 15 -4 15 -7 15 C-7.66 11.37 -8.32 7.74 -9 4 C-2.25 0 -2.25 0 0 0 Z " fill="#A087B9" transform="translate(229,290)"/>
<path d="M0 0 C0.33 0.66 0.66 1.32 1 2 C-0.14713755 4.1891466 -1.33652471 6.18970002 -2.6875 8.25 C-3.08670654 8.86536621 -3.48591309 9.48073242 -3.8972168 10.11474609 C-9.66280383 18.76587059 -16.5548985 26.74942609 -24 34 C-21.6469294 27.33296664 -17.47601159 22.37121391 -13 17 C-12.29875 15.948125 -11.5975 14.89625 -10.875 13.8125 C-9.33596108 11.50394162 -7.92870614 9.92870614 -6 8 C-4.65729179 6.00628175 -3.32346506 4.0065438 -2 2 C-1.34 1.34 -0.68 0.68 0 0 Z " fill="#7A5296" transform="translate(236,260)"/>
<path d="M0 0 C0.04898438 0.71027344 0.09796875 1.42054688 0.1484375 2.15234375 C0.22320312 3.07144531 0.29796875 3.99054688 0.375 4.9375 C0.44460937 5.85402344 0.51421875 6.77054687 0.5859375 7.71484375 C0.72257813 8.46894531 0.85921875 9.22304688 1 10 C1.66 10.33 2.32 10.66 3 11 C0.36 11.99 -2.28 12.98 -5 14 C-7.63529412 6.91764706 -7.63529412 6.91764706 -7 3 C-4.51960083 0.51960083 -3.55547616 0 0 0 Z " fill="#8666A6" transform="translate(221,295)"/>
<path d="M0 0 C0.66 0.66 1.32 1.32 2 2 C1.01 2.66 0.02 3.32 -1 4 C-0.34 7.3 0.32 10.6 1 14 C-4.75 15.125 -4.75 15.125 -7 14 C-7.6328125 12.15234375 -7.6328125 12.15234375 -8.125 9.9375 C-8.29257813 9.20402344 -8.46015625 8.47054688 -8.6328125 7.71484375 C-8.75398437 7.14894531 -8.87515625 6.58304687 -9 6 C-8.43410156 5.65066406 -7.86820313 5.30132812 -7.28515625 4.94140625 C-6.55167969 4.48636719 -5.81820312 4.03132813 -5.0625 3.5625 C-4.33160156 3.11003906 -3.60070312 2.65757812 -2.84765625 2.19140625 C-1.06100191 1.13135967 -1.06100191 1.13135967 0 0 Z " fill="#6C4491" transform="translate(209,297)"/>
<path d="M0 0 C0.19477739 1.62414378 0.38059458 3.24936423 0.5625 4.875 C0.66691406 5.77992188 0.77132812 6.68484375 0.87890625 7.6171875 C1 10 1 10 0 12 C-2.0625 12.625 -2.0625 12.625 -4 13 C-7.03692906 6.68318756 -7.03692906 6.68318756 -6.875 3.6875 C-5.24061683 0.53547531 -3.38986072 0 0 0 Z " fill="#7E5DA0" transform="translate(214,298)"/>
<path d="M0 0 C0.99 0.33 1.98 0.66 3 1 C4.02734375 3.1875 4.02734375 3.1875 4.9375 6 C7.2376773 12.76059716 10.00261639 19.11346122 13.3125 25.4375 C14.1478125 27.2009375 14.1478125 27.2009375 15 29 C14.67 29.66 14.34 30.32 14 31 C0 5.024 0 5.024 0 0 Z " fill="#8261A2" transform="translate(62,224)"/>
<path d="M0 0 C1.07765625 0.03609375 2.1553125 0.0721875 3.265625 0.109375 C4.49539062 0.17898438 4.49539062 0.17898438 5.75 0.25 C3.75 2.25 3.75 2.25 -0.1875 2.3125 C-1.22197266 2.26802734 -1.22197266 2.26802734 -2.27734375 2.22265625 C-4.46506135 2.15332679 -4.46506135 2.15332679 -7.25 3.25 C-7.25 3.91 -7.25 4.57 -7.25 5.25 C-9.75 6.875 -9.75 6.875 -12.25 8.25 C-9.61016427 2.09038329 -6.78862184 -0.29515747 0 0 Z M-13.25 8.25 C-13.25 10.25 -13.25 12.25 -13.25 14.25 C-17.47222222 17.25 -17.47222222 17.25 -20.25 17.25 C-18.69499019 13.43315774 -16.21404505 11.05804268 -13.25 8.25 Z " fill="#A38AC8" transform="translate(185.25,312.75)"/>
<path d="M0 0 C0 3.63 0 7.26 0 11 C0.66 11.33 1.32 11.66 2 12 C0.35 12.33 -1.3 12.66 -3 13 C-3.66 9.37 -4.32 5.74 -5 2 C-1 0 -1 0 0 0 Z " fill="#977BB2" transform="translate(225,292)"/>
<path d="M0 0 C4.57478244 2.0214155 7.61831569 4.31993178 11 8 C6.25 7.125 6.25 7.125 4 6 C3.67 6.66 3.34 7.32 3 8 C1.35 6.02 -0.3 4.04 -2 2 C-1.34 1.34 -0.68 0.68 0 0 Z " fill="#A58DC2" transform="translate(109,294)"/>
<path d="M0 0 C0.99 0 1.98 0 3 0 C3.07347656 1.06541016 3.07347656 1.06541016 3.1484375 2.15234375 C3.22320312 3.07144531 3.29796875 3.99054688 3.375 4.9375 C3.44460937 5.85402344 3.51421875 6.77054687 3.5859375 7.71484375 C3.72257813 8.46894531 3.85921875 9.22304688 4 10 C4.66 10.33 5.32 10.66 6 11 C2.25 12.125 2.25 12.125 0 11 C0 7.37 0 3.74 0 0 Z " fill="#8C6EAB" transform="translate(218,295)"/>
<path d="M0 0 C0.66 0.33 1.32 0.66 2 1 C2.484375 2.99609375 2.484375 2.99609375 2.75 5.4375 C2.84796875 6.24058594 2.9459375 7.04367187 3.046875 7.87109375 C3 10 3 10 1 12 C-2.0656304 5.62348877 -2.0656304 5.62348877 -1.75 2.625 C-1 1 -1 1 0 0 Z " fill="#78549B" transform="translate(209,299)"/>
<path d="M0 0 C0.12375 0.639375 0.2475 1.27875 0.375 1.9375 C0.58125 2.618125 0.7875 3.29875 1 4 C1.66 4.33 2.32 4.66 3 5 C-1.1196377 6.29243536 -4.66831683 7.26252625 -9 7 C-6.24479785 4.04070881 -3.53372712 1.96318174 0 0 Z " fill="#81599A" transform="translate(193,300)"/>
<path d="M0 0 C0.99 0.495 0.99 0.495 2 1 C1.01 1.495 1.01 1.495 0 2 C0 1.34 0 0.68 0 0 Z M0 2 C-0.3125 4.875 -0.3125 4.875 -1 8 C-4 10 -4 10 -7 10 C-4.18918919 2 -4.18918919 2 0 2 Z " fill="#AE99D2" transform="translate(178,316)"/>
<path d="M0 0 C0.66 0 1.32 0 2 0 C3.125 7.625 3.125 7.625 2 11 C1.34 11 0.68 11 0 11 C0 7.37 0 3.74 0 0 Z " fill="#D4C7DE" transform="translate(26,162)"/>
<path d="M0 0 C2.97 0 5.94 0 9 0 C9 0.99 9 1.98 9 3 C5.7 2.67 2.4 2.34 -1 2 C-0.67 1.34 -0.34 0.68 0 0 Z " fill="#4D1671" transform="translate(165,309)"/>
<path d="M0 0 C0.33 0.66 0.66 1.32 1 2 C-1.31 5.3 -3.62 8.6 -6 12 C-6.33 11.34 -6.66 10.68 -7 10 C-6.07421875 8.125 -6.07421875 8.125 -4.6875 6 C-4.01267578 4.948125 -4.01267578 4.948125 -3.32421875 3.875 C-2 2 -2 2 0 0 Z " fill="#7D579B" transform="translate(236,260)"/>
<path d="M0 0 C1.98 0 3.96 0 6 0 C6 0.66 6 1.32 6 2 C1.61538462 5 1.61538462 5 -1 5 C-0.67 3.35 -0.34 1.7 0 0 Z " fill="#C1AFDD" transform="translate(183,314)"/>
<path d="M0 0 C2.64 0.66 5.28 1.32 8 2 C8 2.66 8 3.32 8 4 C5.125 4.625 5.125 4.625 2 5 C1.34 4.34 0.68 3.68 0 3 C0 2.01 0 1.02 0 0 Z " fill="#AD97C8" transform="translate(113,300)"/>
<path d="M0 0 C0.66 0.33 1.32 0.66 2 1 C-0.46153846 4.81538462 -0.46153846 4.81538462 -3.1875 5.75 C-3.785625 5.8325 -4.38375 5.915 -5 6 C-4.75 4.125 -4.75 4.125 -4 2 C-2.0625 0.6875 -2.0625 0.6875 0 0 Z " fill="#8A65A1" transform="translate(199,297)"/>
<path d="M0 0 C1.98 0.99 3.96 1.98 6 3 C6 3.33 6 3.66 6 4 C4.02 4.33 2.04 4.66 0 5 C-0.66 4.01 -1.32 3.02 -2 2 C-1.34 1.34 -0.68 0.68 0 0 Z " fill="#9B80BB" transform="translate(109,294)"/>
<path d="M0 0 C3.80666984 1.44390925 5.26602582 3.34952803 7 7 C6.67 7.66 6.34 8.32 6 9 C4.99406757 7.8803014 3.9954151 6.7540588 3 5.625 C2.443125 4.99851562 1.88625 4.37203125 1.3125 3.7265625 C0 2 0 2 0 0 Z " fill="#8362A8" transform="translate(93,279)"/>
<path d="M0 0 C0.66 0.33 1.32 0.66 2 1 C1.2884375 1.495 1.2884375 1.495 0.5625 2 C-1.85791615 5.09813267 -1.68198917 8.12026792 -2 12 C-2.33 12 -2.66 12 -3 12 C-3.33 8.7 -3.66 5.4 -4 2 C-2.68 1.34 -1.36 0.68 0 0 Z " fill="#8E6DAD" transform="translate(26,143)"/>
<path d="M0 0 C1.32 0.66 2.64 1.32 4 2 C0.77208445 4.1519437 -0.28400809 4.20086443 -4 4 C-2.68 2.68 -1.36 1.36 0 0 Z " fill="#734990" transform="translate(188,303)"/>
<path d="M0 0 C0.99 0 1.98 0 3 0 C2.67 1.32 2.34 2.64 2 4 C0.35 4.33 -1.3 4.66 -3 5 C-1.6875 2.5 -1.6875 2.5 0 0 Z " fill="#9878AD" transform="translate(202,298)"/>
</svg>
