<?xml version="1.0" encoding="UTF-8"?>
<svg version="1.1" xmlns="http://www.w3.org/2000/svg" width="1024" height="285">
<path d="M0 0 C1.00611328 0.41531982 2.01222656 0.83063965 3.04882812 1.25854492 C4.11294922 1.70818604 5.17707031 2.15782715 6.2734375 2.62109375 C14.16950427 5.87609684 22.05975663 9.00232088 30.1484375 11.74609375 C37.04438288 14.09645379 43.78470894 16.68160209 50.50024414 19.50463867 C55.1600736 21.46017629 59.84774744 23.30169068 64.5859375 25.05859375 C65.22853516 25.29827881 65.87113281 25.53796387 66.53320312 25.78491211 C69.36466747 26.84039727 72.1971284 27.89285199 75.03369141 28.93457031 C77.49258079 29.84060443 79.94571724 30.76100863 82.3984375 31.68359375 C83.16148193 31.96074219 83.92452637 32.23789062 84.71069336 32.5234375 C92.30814493 35.40631898 92.30814493 35.40631898 94.6484375 39.05859375 C96.54065404 47.05882536 95.72107471 55.78437025 95.4609375 63.93359375 C95.43954712 64.6287912 95.41815674 65.32398865 95.39611816 66.04025269 C93.46228776 124.47538195 74.89051472 182.97772907 31.6484375 223.93359375 C24.47742419 230.32012033 16.62584692 235.73453588 8.6484375 241.05859375 C8.05788574 241.45836426 7.46733398 241.85813477 6.85888672 242.27001953 C-3.52288056 249.21472522 -3.52288056 249.21472522 -10.2109375 248.61328125 C-14.3798598 247.53301306 -17.75347709 245.35969488 -21.3515625 243.05859375 C-22.27195312 242.53136719 -23.19234375 242.00414062 -24.140625 241.4609375 C-29.41337331 238.43839023 -29.41337331 238.43839023 -31.3515625 237.05859375 C-31.3515625 236.39859375 -31.3515625 235.73859375 -31.3515625 235.05859375 C-32.3415625 235.05859375 -33.3315625 235.05859375 -34.3515625 235.05859375 C-34.3515625 234.39859375 -34.3515625 233.73859375 -34.3515625 233.05859375 C-35.125 232.71828125 -35.125 232.71828125 -35.9140625 232.37109375 C-39.24703255 230.57641757 -42.49859921 228.5589436 -45.3515625 226.05859375 C-45.3515625 225.39859375 -45.3515625 224.73859375 -45.3515625 224.05859375 C-46.3415625 223.72859375 -47.3315625 223.39859375 -48.3515625 223.05859375 C-48.3515625 222.39859375 -48.3515625 221.73859375 -48.3515625 221.05859375 C-48.9084375 220.83171875 -49.4653125 220.60484375 -50.0390625 220.37109375 C-53.01315838 218.68309339 -55.07165115 216.59182858 -57.3515625 214.05859375 C-57.3515625 213.39859375 -57.3515625 212.73859375 -57.3515625 212.05859375 C-58.3415625 211.72859375 -59.3315625 211.39859375 -60.3515625 211.05859375 C-61.72680664 209.63842773 -61.72680664 209.63842773 -63.13671875 207.8046875 C-63.66241455 207.12341797 -64.18811035 206.44214844 -64.72973633 205.74023438 C-65.28556396 204.99966797 -65.8413916 204.25910156 -66.4140625 203.49609375 C-66.99115967 202.73103516 -67.56825684 201.96597656 -68.1628418 201.17773438 C-77.55832869 188.55867501 -85.09443733 175.48532089 -91.3515625 161.05859375 C-91.76100098 160.12563477 -91.76100098 160.12563477 -92.17871094 159.17382812 C-102.51519568 135.38330328 -107.86443054 109.79500277 -110.3515625 84.05859375 C-110.43297485 83.38899124 -110.51438721 82.71938873 -110.5982666 82.02949524 C-111.23138041 76.81897596 -111.52407833 71.69192033 -111.5546875 66.4453125 C-111.56038757 65.6684761 -111.56608765 64.89163971 -111.57196045 64.09126282 C-111.58132117 62.46702401 -111.58790837 60.84276698 -111.59179688 59.21850586 C-111.60160815 56.73453572 -111.63275537 54.25135862 -111.6640625 51.76757812 C-111.67058445 50.18099444 -111.67583808 48.59440492 -111.6796875 47.0078125 C-111.6920343 46.26923508 -111.7043811 45.53065765 -111.71710205 44.7696991 C-111.70354321 41.64600239 -111.54947697 39.41995651 -110.03515625 36.6550293 C-107.46494325 34.21787402 -104.39340527 33.29425932 -101.1015625 32.18359375 C-99.64263799 31.66572495 -98.18431634 31.14615504 -96.7265625 30.625 C-95.62248047 30.23465576 -95.62248047 30.23465576 -94.49609375 29.83642578 C-91.32765264 28.68721661 -88.21842455 27.40269821 -85.1015625 26.12109375 C-79.29156706 23.75374204 -73.40982433 21.65775871 -67.4765625 19.62109375 C-60.47016082 17.21471421 -53.62266105 14.58076615 -46.80322266 11.69042969 C-40.42958899 9.01988767 -33.93744646 6.74493578 -27.38867188 4.54296875 C-22.60797645 2.91933634 -18.08780899 1.08400564 -13.57226562 -1.18286133 C-8.66976636 -2.85745073 -4.6505246 -1.95929173 0 0 Z " fill="#7B58A7" transform="translate(125.3515625,18.94140625)"/>
<path d="M0 0 C1.21888916 0.50355766 1.21888916 0.50355766 2.46240234 1.01728821 C5.04033809 2.0841091 7.61395374 3.16092081 10.1875 4.23828125 C11.881229 4.94143345 13.57523776 5.64391219 15.26953125 6.34570312 C18.60897947 7.72962986 21.94583194 9.11957515 25.28125 10.51318359 C28.56509919 11.88246177 31.85655503 13.2304051 35.15625 14.56103516 C35.94112793 14.87893509 36.72600586 15.19683502 37.53466797 15.52436829 C39.01638007 16.12343537 40.49970528 16.71853317 41.98486328 17.30900574 C44.84829504 18.46986179 46.97904377 19.34232502 49.1875 21.55078125 C49.66138464 25.98802642 49.51923986 30.46631519 49.5 34.92578125 C49.49262817 36.90203491 49.49262817 36.90203491 49.48510742 38.91821289 C49.38472332 49.71357378 48.32712456 59.985332 46.1875 70.55078125 C46.02121094 71.42750488 45.85492188 72.30422852 45.68359375 73.20751953 C40.7928569 98.74350573 30.86085546 122.48526036 14.1875 142.55078125 C13.66671875 143.22367188 13.1459375 143.8965625 12.609375 144.58984375 C5.90516262 153.02790415 -6.34875207 164.61781276 -17.3125 165.98828125 C-40.56021702 156.44011176 -56.30400286 131.51318447 -66.0625 109.48828125 C-70.5746443 98.50164735 -74.39733784 87.18995258 -76.8125 75.55078125 C-77.01770264 74.61758057 -77.01770264 74.61758057 -77.22705078 73.66552734 C-81.00339598 55.87370483 -80.10064173 37.63130511 -79.8125 19.55078125 C-75.20925396 17.64648171 -70.60512999 15.74432497 -66.00024414 13.84399414 C-64.43979055 13.19969955 -62.87956202 12.55485954 -61.31958008 11.90942383 C-52.77294074 8.373736 -44.21424265 4.90863725 -35.56713867 1.62524414 C-33.20300617 0.70310046 -30.88895808 -0.27357872 -28.578125 -1.3203125 C-27.41796875 -1.83722656 -26.2578125 -2.35414062 -25.0625 -2.88671875 C-23.89203125 -3.42167969 -22.7215625 -3.95664062 -21.515625 -4.5078125 C-14.08409905 -6.39705064 -6.83957783 -2.88455537 0 0 Z " fill="#9C81D4" transform="translate(132.8125,62.44921875)"/>
<path d="M0 0 C18.81 0 37.62 0 57 0 C56.22917439 3.85412803 55.86007942 5.65130114 54.0390625 8.8125 C53.64976562 9.49570313 53.26046875 10.17890625 52.859375 10.8828125 C52.45203125 11.58148438 52.0446875 12.28015625 51.625 13 C51.22539063 13.69867188 50.82578125 14.39734375 50.4140625 15.1171875 C48.72973254 18.0536838 47.02004659 20.96721688 45.25390625 23.85546875 C44.04073575 25.93033045 43.4354088 27.64879248 43 30 C43.8353125 30.12375 43.8353125 30.12375 44.6875 30.25 C47.69002746 31.22379269 49.58772879 32.99977512 52 35 C56.61864588 25.87326094 61.14063292 16.71855508 65.38476562 7.41040039 C67.7850228 2.2149772 67.7850228 2.2149772 70 0 C72.06298828 -0.22705078 72.06298828 -0.22705078 74.5703125 -0.1953125 C75.46621094 -0.18886719 76.36210938 -0.18242188 77.28515625 -0.17578125 C78.69087891 -0.15064453 78.69087891 -0.15064453 80.125 -0.125 C81.06988281 -0.11597656 82.01476562 -0.10695313 82.98828125 -0.09765625 C85.32577292 -0.07404522 87.66276123 -0.04111516 90 0 C88.8430304 4.95461519 87.52895468 9.50482107 85.5 14.1875 C85.0771875 15.17105469 84.654375 16.15460938 84.21875 17.16796875 C83.8165625 18.10253906 83.414375 19.03710938 83 20 C82.3278558 21.6644652 81.65929258 23.33040259 81 25 C81.64066406 25.04898438 82.28132812 25.09796875 82.94140625 25.1484375 C88.21196085 25.6040145 92.96986288 26.3597379 98 28 C98.20625 26.700625 98.4125 25.40125 98.625 24.0625 C100.45205285 15.99301658 105.07005252 9.82215561 111.8984375 5.21875 C121.2129338 -0.18296533 132.57401019 -0.53541272 143.00390625 1.62109375 C152.38477094 4.92421512 158.62453573 11.3854697 162.91871643 20.1579895 C164.71965138 24.89150823 164.69571435 29.3997253 164.62890625 34.4140625 C164.63131821 35.46854584 164.63373016 36.52302917 164.63621521 37.60946655 C164.63524192 39.82301623 164.62197335 42.03659184 164.59692383 44.25 C164.56251794 47.62324143 164.57631907 50.99387199 164.59570312 54.3671875 C164.58880608 56.52865689 164.57913497 58.69011959 164.56640625 60.8515625 C164.57136612 61.85071686 164.57632599 62.84987122 164.58143616 63.87930298 C164.43711904 72.51969979 161.88418938 78.41440573 156.0625 84.8125 C155.41410156 85.54082031 154.76570312 86.26914063 154.09765625 87.01953125 C147.82263313 92.94399442 139.4502246 94.88227241 131 95 C121.10386619 94.17749811 113.5010857 91.56344999 106 85 C101.79289278 87.02564422 97.8831514 89.4112324 94 92 C84.16452625 95.19949146 74.61545396 94.72787986 65 91 C61.7931687 89.25967911 58.73639297 87.42559278 56 85 C56 84.34 56 83.68 56 83 C52.55803251 84.92750179 49.30027554 86.77805721 46.125 89.125 C38.33963408 93.79621955 29.03902821 93.92695872 20.3125 92.1875 C11.64568015 89.98711569 4.19152975 85.03250673 -0.65234375 77.39453125 C-4.04159316 70.74374328 -5 66.62740157 -5 59 C0.94 59 6.88 59 13 59 C15 65 15 65 17 71 C19.3430809 72.12085312 19.3430809 72.12085312 22 73 C22.9590625 73.556875 22.9590625 73.556875 23.9375 74.125 C27.65779983 75.70330902 30.52234154 75.58954524 34.28125 74.08984375 C38.0422153 72.19104471 40.54908764 70.61488049 43.0625 67.1875 C44.49021172 62.33328015 44.60140317 58.20514495 43.25 53.25 C41.27773828 49.6999289 39.31400859 47.58095235 35.5703125 45.92578125 C30.59942308 44.63683071 25.7414181 44.53344392 20.625 44.375 C19.60277344 44.33632812 18.58054687 44.29765625 17.52734375 44.2578125 C15.01840403 44.16402036 12.50946236 44.07832121 10 44 C10.66184324 40.73705674 11.8581107 38.17567222 13.46875 35.26953125 C13.95730469 34.38458984 14.44585938 33.49964844 14.94921875 32.58789062 C15.71685547 31.21407227 15.71685547 31.21407227 16.5 29.8125 C17.26763672 28.4212793 17.26763672 28.4212793 18.05078125 27.00195312 C21.85040794 20.14959206 21.85040794 20.14959206 23 19 C11.615 18.505 11.615 18.505 0 18 C0 12.06 0 6.12 0 0 Z M119 23 C114.04515443 30.065574 114.38698783 37.49414541 114.47851562 45.80029297 C114.50001875 48.1270289 114.47862246 50.45070013 114.453125 52.77734375 C114.4557674 54.27084008 114.46089057 55.76433452 114.46875 57.2578125 C114.46065308 57.94545685 114.45255615 58.6331012 114.44421387 59.34158325 C114.56805771 65.76949411 117.42685785 69.19088653 121.5 73.875 C125.28866818 76.82708409 129.36658843 76.74941242 134.015625 76.55859375 C138.67038294 75.68734979 141.86563574 73.50405851 145 70 C147.56920852 66.19873922 147.32315361 62.14857335 147.3359375 57.7265625 C147.3425943 56.92519867 147.3492511 56.12383484 147.35610962 55.29818726 C147.36621876 53.60539031 147.37092718 51.91255366 147.37060547 50.21972656 C147.37497358 47.64060188 147.4112949 45.06319653 147.44921875 42.484375 C147.45508848 40.83594332 147.45905683 39.18750356 147.4609375 37.5390625 C147.47530853 36.7732486 147.48967957 36.00743469 147.50448608 35.21841431 C147.46063108 30.03412077 146.41039851 27.1159982 143 23 C138.18641832 19.34167793 134.47213035 18.3311426 128.4296875 18.625 C124.52097492 19.22827397 121.96244748 20.40374902 119 23 Z M66 49 C62.70171364 53.83748666 62.25485611 58.31445004 63 64 C64.94778898 69.43330609 67.92334933 72.18943372 72.83203125 75.078125 C77.09789747 76.89207892 81.47829004 76.70045853 86 76 C91.42848365 73.55133076 95.10745991 69.52009354 97.44140625 64.07421875 C98.78530743 59.08392835 97.59726077 54.77131984 95.3125 50.25 C92.00295714 45.59875058 88.70483415 43.0853973 83.0625 42.125 C75.92726403 41.58136297 71.01126085 43.98873915 66 49 Z " fill="#6F49A1" transform="translate(838,96)"/>
<path d="M0 0 C7.05960674 1.2385275 13.36472609 3.63783835 19.97265625 6.359375 C23.94988483 7.99552155 27.96672551 9.50841604 32 11 C38.54997503 13.43034353 45.03464273 15.99741312 51.5078125 18.625 C55.53668881 20.21131371 59.61015601 21.61617936 63.73046875 22.9453125 C66.70383841 24.32708497 68.0920825 25.28407309 70 28 C71.93450539 35.9721463 71.07197458 44.74653437 70.8125 52.875 C70.79110962 53.57019745 70.76971924 54.2653949 70.74768066 54.98165894 C68.81385026 113.4167882 50.24207722 171.91913532 7 212.875 C-0.17101331 219.26152658 -8.02259058 224.67594213 -16 230 C-16.59055176 230.39977051 -17.18110352 230.79954102 -17.78955078 231.21142578 C-28.17131806 238.15613147 -28.17131806 238.15613147 -34.859375 237.5546875 C-39.0282973 236.47441931 -42.40191459 234.30110113 -46 232 C-46.92039062 231.47277344 -47.84078125 230.94554687 -48.7890625 230.40234375 C-54.06181081 227.37979648 -54.06181081 227.37979648 -56 226 C-56 225.34 -56 224.68 -56 224 C-56.99 224 -57.98 224 -59 224 C-59 223.34 -59 222.68 -59 222 C-59.7734375 221.6596875 -59.7734375 221.6596875 -60.5625 221.3125 C-63.89547005 219.51782382 -67.14703671 217.50034985 -70 215 C-70 214.34 -70 213.68 -70 213 C-70.99 212.67 -71.98 212.34 -73 212 C-73 211.34 -73 210.68 -73 210 C-73.556875 209.773125 -74.11375 209.54625 -74.6875 209.3125 C-77.66159588 207.62449964 -79.72008865 205.53323483 -82 203 C-82 202.34 -82 201.68 -82 201 C-82.99 200.67 -83.98 200.34 -85 200 C-86.37524414 198.57983398 -86.37524414 198.57983398 -87.78515625 196.74609375 C-88.31085205 196.06482422 -88.83654785 195.38355469 -89.37817383 194.68164062 C-89.93400146 193.94107422 -90.4898291 193.20050781 -91.0625 192.4375 C-91.63959717 191.67244141 -92.21669434 190.90738281 -92.8112793 190.11914062 C-102.20676619 177.50008126 -109.74287483 164.42672714 -116 150 C-116.27295898 149.37802734 -116.54591797 148.75605469 -116.82714844 148.11523438 C-123.07145817 133.74328787 -131 114.86760322 -131 99 C-130.34 99 -129.68 99 -129 99 C-128.9071875 97.63875 -128.9071875 97.63875 -128.8125 96.25 C-127.6744053 88.26707859 -123.80656453 80.4087527 -119 74 C-117.48648734 76.74872683 -116.70208226 78.99206652 -116.359375 82.10546875 C-116.26172852 82.91129395 -116.16408203 83.71711914 -116.06347656 84.54736328 C-115.9600293 85.4186084 -115.85658203 86.28985352 -115.75 87.1875 C-111.90410342 116.23575066 -103.12405377 144.3575782 -87 169 C-86.3296875 170.0415625 -85.659375 171.083125 -84.96875 172.15625 C-73.03945098 190.09124559 -56.64301609 203.89271461 -38.27734375 214.92578125 C-37.57730225 215.34899658 -36.87726074 215.77221191 -36.15600586 216.20825195 C-33.34514433 217.24048205 -31.83934198 216.87366511 -29 216 C-26.89574305 215.04412691 -26.89574305 215.04412691 -24.8984375 213.8203125 C-24.16109375 213.38589844 -23.42375 212.95148438 -22.6640625 212.50390625 C-21.90867187 212.04886719 -21.15328125 211.59382812 -20.375 211.125 C-19.611875 210.67769531 -18.84875 210.23039063 -18.0625 209.76953125 C-14.5654452 207.68970392 -11.91333528 205.91333528 -9 203 C-13.29 202.67 -17.58 202.34 -22 202 C-22 201.01 -22 200.02 -22 199 C-21.07767578 198.88785156 -21.07767578 198.88785156 -20.13671875 198.7734375 C-17.63235396 198.36602887 -15.37551911 197.89826977 -13 197 C-11.22504725 194.2003264 -11.22504725 194.2003264 -10 191 C-8.11851526 189.11361556 -6.13381887 187.6122187 -4 186 C-3.34 186.33 -2.68 186.66 -2 187 C-1.67 187.99 -1.34 188.98 -1 190 C-2.4375 192.1875 -2.4375 192.1875 -4 194 C1.01106688 193.76137777 3.38878072 192.32007177 6.67578125 188.765625 C8.73816359 186.01578188 9.83821274 183.22718682 11 180 C11.66 180 12.32 180 13 180 C13.27328125 179.2678125 13.5465625 178.535625 13.828125 177.78125 C14.94191117 175.13786417 16.18111994 172.89549429 17.75 170.5 C18.21921875 169.7678125 18.6884375 169.035625 19.171875 168.28125 C21 166 21 166 23.953125 163.6796875 C27.4565667 160.85825491 29.12892501 157.65696588 31 153.625 C31.33757324 152.92020508 31.67514648 152.21541016 32.02294922 151.48925781 C41.44315271 131.54321407 47.66901484 110.80014101 51 89 C51.18095215 87.81664063 51.3619043 86.63328125 51.54833984 85.4140625 C52.94812329 75.39195893 53.24423112 65.60764976 53.125 55.5 C53.11492835 53.98307897 53.10581005 52.4661513 53.09765625 50.94921875 C53.07602408 47.29933692 53.0417367 43.6497141 53 40 C45.56312196 36.48857061 38.0612001 33.43737539 30.3125 30.6875 C29.31283203 30.32849609 28.31316406 29.96949219 27.28320312 29.59960938 C24.85691529 28.72893192 22.42921898 27.86245792 20 27 C20.81404297 28.61068359 20.81404297 28.61068359 21.64453125 30.25390625 C22.36729615 31.69004949 23.08994628 33.1262505 23.8125 34.5625 C24.16892578 35.26697266 24.52535156 35.97144531 24.89257812 36.69726562 C25.94419934 38.79086016 26.97802999 40.89178201 28 43 C28.31888184 43.65468262 28.63776367 44.30936523 28.96630859 44.98388672 C31.11940586 49.64178241 31.11940586 49.64178241 30 53 C29.50371094 52.31035156 29.00742188 51.62070313 28.49609375 50.91015625 C23.40646421 43.86966302 18.30679194 36.82891699 12.625 30.25 C10.84849265 27.79022059 10.34173402 25.99017269 10 23 C9.67 23 9.34 23 9 23 C9 20.36 9 17.72 9 15 C9.66 15 10.32 15 11 15 C9.80890625 13.50146484 9.80890625 13.50146484 8.59375 11.97265625 C7.56237327 10.66937111 6.53113014 9.36598024 5.5 8.0625 C4.97535156 7.40314453 4.45070312 6.74378906 3.91015625 6.06445312 C0 1.11328125 0 1.11328125 0 0 Z " fill="#754EA7" transform="translate(150,30)"/>
<path d="M0 0 C6.6 0 13.2 0 20 0 C26.51110273 7.63129245 26.51110273 7.63129245 28.0625 11.0078125 C29.61444923 14.23399489 31.32733167 17.20020342 33.3125 20.1875 C33.85648438 21.04859375 34.40046875 21.9096875 34.9609375 22.796875 C37.76020643 27.19419401 40.59783338 31.56619098 43.4375 35.9375 C43.9631958 36.74791748 44.4888916 37.55833496 45.03051758 38.39331055 C49.30280499 44.96469845 53.65135045 51.47702567 58 58 C58.33 38.86 58.66 19.72 59 0 C65.6 0 72.2 0 79 0 C79 31.68 79 63.36 79 96 C72.07 96 65.14 96 58 96 C52.17716284 88.92941202 52.17716284 88.92941202 50.578125 85.23046875 C47.80486755 79.33671986 44.22809718 74.01259338 40.61633301 68.61126709 C38.84086454 65.94922926 37.09495191 63.26788517 35.34375 60.58984375 C30.58863968 53.37593088 25.79267431 46.18901147 21 39 C20.67 57.81 20.34 76.62 20 96 C13.4 96 6.8 96 0 96 C0 64.32 0 32.64 0 0 Z " fill="#FFFFFF" transform="translate(546,94)"/>
<path d="M0 0 C53.32079208 0 53.32079208 0 62.5 7.9375 C63.2734375 8.58589844 64.046875 9.23429687 64.84375 9.90234375 C74.91122475 19.69624582 78.95334007 31.49433419 79.40380859 45.32055664 C79.57489348 58.60938924 77.09150211 70.48909437 68.9375 81.375 C68.43089844 82.06335938 67.92429687 82.75171875 67.40234375 83.4609375 C66.93957031 83.96882813 66.47679687 84.47671875 66 85 C65.34 85 64.68 85 64 85 C64 85.66 64 86.32 64 87 C61.796875 88.65625 61.796875 88.65625 58.75 90.5 C57.77546875 91.1084375 56.8009375 91.716875 55.796875 92.34375 C39.60167289 99.40832376 14.69216439 96 0 96 C0 64.32 0 32.64 0 0 Z M20 19 C20 38.14 20 57.28 20 77 C39.36021682 78.56524758 39.36021682 78.56524758 49 73 C57.39042898 64.42311704 58.25319868 55.92671846 58.15625 44.4140625 C57.8324213 37.33840542 56.27426047 30.25409049 51.09765625 25.109375 C40.32330629 15.52351572 40.45371921 19 20 19 Z " fill="#FFFFFF" transform="translate(253,94)"/>
<path d="M0 0 C53.89626556 0 53.89626556 0 65.90234375 11.8828125 C75.54519739 22.2799697 78.24575748 34.26911845 78.3125 48.1875 C78.31797852 49.01862305 78.32345703 49.84974609 78.32910156 50.70605469 C78.16451165 65.01402634 73.28492467 76.56811436 63.23828125 86.79296875 C46.96073723 101.60736275 18.79563808 96 0 96 C0 64.32 0 32.64 0 0 Z M19 19 C19 38.14 19 57.28 19 77 C35.58321766 78.44392812 35.58321766 78.44392812 49.109375 72.23828125 C49.65078125 71.60277344 50.1921875 70.96726563 50.75 70.3125 C51.30171875 69.68988281 51.8534375 69.06726563 52.421875 68.42578125 C56.58987347 62.01903112 57.55433338 55.79364583 57.5 48.25 C57.49718018 47.37690186 57.49436035 46.50380371 57.49145508 45.60424805 C57.31295946 38.43058205 56.15407302 32.04973451 52 26 C51.01 25.67 50.02 25.34 49 25 C48.67 24.01 48.34 23.02 48 22 C39.68939642 17.28568122 39.68939642 17.28568122 19 19 Z " fill="#FFFFFF" transform="translate(632,94)"/>
<path d="M0 0 C18.81 0 37.62 0 57 0 C56.22917439 3.85412803 55.86007942 5.65130114 54.0390625 8.8125 C53.64976562 9.49570313 53.26046875 10.17890625 52.859375 10.8828125 C52.45203125 11.58148438 52.0446875 12.28015625 51.625 13 C51.22539063 13.69867188 50.82578125 14.39734375 50.4140625 15.1171875 C48.72973254 18.0536838 47.02004659 20.96721688 45.25390625 23.85546875 C44.04073575 25.93033045 43.4354088 27.64879248 43 30 C43.53625 30.061875 44.0725 30.12375 44.625 30.1875 C52.76346963 32.9717133 56.35908789 40.76438024 60 48 C62.17246955 53.15348979 63.43563837 58.49267951 64.5703125 63.95703125 C64.78300781 64.96830078 64.78300781 64.96830078 65 66 C65.12117187 66.72574219 65.24234375 67.45148438 65.3671875 68.19921875 C65.57601562 68.79347656 65.78484375 69.38773437 66 70 C67.485 70.495 67.485 70.495 69 71 C69 71.66 69 72.32 69 73 C74.5359995 75.39394573 80.07219417 75.94878479 86 75 C90.72381666 72.82394675 93.90059443 69.89725989 96 65.125 C96.33 64.09375 96.66 63.0625 97 62 C97.66 62 98.32 62 99 62 C99.09796875 62.71285156 99.1959375 63.42570312 99.296875 64.16015625 C100.32008077 70.83921536 100.32008077 70.83921536 103.1875 76.875 C105 80 105 80 105 82.6875 C102.8097163 87.75253106 98.95495324 89.94322696 94 92 C84.0270365 95.02952287 74.75765166 94.78300944 65 91 C61.7931687 89.25967911 58.73639297 87.42559278 56 85 C56 84.34 56 83.68 56 83 C52.55803251 84.92750179 49.30027554 86.77805721 46.125 89.125 C38.33963408 93.79621955 29.03902821 93.92695872 20.3125 92.1875 C11.64568015 89.98711569 4.19152975 85.03250673 -0.65234375 77.39453125 C-4.04159316 70.74374328 -5 66.62740157 -5 59 C0.94 59 6.88 59 13 59 C15 65 15 65 17 71 C19.3430809 72.12085312 19.3430809 72.12085312 22 73 C22.9590625 73.556875 22.9590625 73.556875 23.9375 74.125 C27.65779983 75.70330902 30.52234154 75.58954524 34.28125 74.08984375 C38.0422153 72.19104471 40.54908764 70.61488049 43.0625 67.1875 C44.49021172 62.33328015 44.60140317 58.20514495 43.25 53.25 C41.27773828 49.6999289 39.31400859 47.58095235 35.5703125 45.92578125 C30.59942308 44.63683071 25.7414181 44.53344392 20.625 44.375 C19.60277344 44.33632812 18.58054687 44.29765625 17.52734375 44.2578125 C15.01840403 44.16402036 12.50946236 44.07832121 10 44 C10.66184324 40.73705674 11.8581107 38.17567222 13.46875 35.26953125 C13.95730469 34.38458984 14.44585938 33.49964844 14.94921875 32.58789062 C15.71685547 31.21407227 15.71685547 31.21407227 16.5 29.8125 C17.26763672 28.4212793 17.26763672 28.4212793 18.05078125 27.00195312 C21.85040794 20.14959206 21.85040794 20.14959206 23 19 C11.615 18.505 11.615 18.505 0 18 C0 12.06 0 6.12 0 0 Z " fill="#623890" transform="translate(838,96)"/>
<path d="M0 0 C20.79 0 41.58 0 63 0 C63 6.27 63 12.54 63 19 C48.81 19 34.62 19 20 19 C20 24.94 20 30.88 20 37 C31.88 37 43.76 37 56 37 C56 42.94 56 48.88 56 55 C44.12 55 32.24 55 20 55 C20 62.59 20 70.18 20 78 C34.19 78 48.38 78 63 78 C63 83.94 63 89.88 63 96 C42.21 96 21.42 96 0 96 C0 64.32 0 32.64 0 0 Z " fill="#FFFFFF" transform="translate(339,94)"/>
<path d="M0 0 C20.79 0 41.58 0 63 0 C63 6.27 63 12.54 63 19 C48.81 19 34.62 19 20 19 C20 24.94 20 30.88 20 37 C31.55 37 43.1 37 55 37 C55 42.94 55 48.88 55 55 C43.45 55 31.9 55 20 55 C20 62.59 20 70.18 20 78 C34.19 78 48.38 78 63 78 C63 83.94 63 89.88 63 96 C42.21 96 21.42 96 0 96 C0 64.32 0 32.64 0 0 Z " fill="#FFFFFF" transform="translate(476,94)"/>
<path d="M0 0 C1.51351266 2.74872683 2.29791774 4.99206652 2.640625 8.10546875 C2.78709473 9.31420654 2.78709473 9.31420654 2.93652344 10.54736328 C3.09169434 11.85423096 3.09169434 11.85423096 3.25 13.1875 C7.09589658 42.23575066 15.87594623 70.3575782 32 95 C32.6703125 96.0415625 33.340625 97.083125 34.03125 98.15625 C45.96054902 116.09124559 62.35698391 129.89271461 80.72265625 140.92578125 C81.42269775 141.34899658 82.12273926 141.77221191 82.84399414 142.20825195 C85.65485567 143.24048205 87.16065802 142.87366511 90 142 C92.10425695 141.04412691 92.10425695 141.04412691 94.1015625 139.8203125 C94.83890625 139.38589844 95.57625 138.95148438 96.3359375 138.50390625 C97.09132813 138.04886719 97.84671875 137.59382812 98.625 137.125 C99.388125 136.67769531 100.15125 136.23039063 100.9375 135.76953125 C104.4345548 133.68970392 107.08666472 131.91333528 110 129 C105.71 128.67 101.42 128.34 97 128 C97 127.01 97 126.02 97 125 C97.92232422 124.88785156 97.92232422 124.88785156 98.86328125 124.7734375 C101.36764604 124.36602887 103.62448089 123.89826977 106 123 C107.77495275 120.2003264 107.77495275 120.2003264 109 117 C110.88148474 115.11361556 112.86618113 113.6122187 115 112 C115.66 112.33 116.32 112.66 117 113 C117.33 113.99 117.66 114.98 118 116 C115.03 117.98 112.06 119.96 109 122 C110.2375 121.938125 111.475 121.87625 112.75 121.8125 C115.69257586 121.80728267 116.85646327 121.9210548 119.5 123.375 C121 125 121 125 121 127 C128.63436908 125.74846408 134.35852705 122.89406021 141 119 C141.66 118.67 142.32 118.34 143 118 C142.55814441 122.45088675 139.49939215 125.10567616 136.5625 128.1875 C136.01682373 128.76556396 135.47114746 129.34362793 134.90893555 129.93920898 C125.23260645 140.08672834 114.61891043 148.21505138 103 156 C102.11199707 156.60183105 102.11199707 156.60183105 101.20605469 157.21582031 C90.82926056 164.1561835 90.82926056 164.1561835 84.140625 163.5546875 C79.9717027 162.47441931 76.59808541 160.30110113 73 158 C72.07960938 157.47277344 71.15921875 156.94554687 70.2109375 156.40234375 C64.93818919 153.37979648 64.93818919 153.37979648 63 152 C63 151.34 63 150.68 63 150 C62.01 150 61.02 150 60 150 C60 149.34 60 148.68 60 148 C59.2265625 147.6596875 59.2265625 147.6596875 58.4375 147.3125 C55.10452995 145.51782382 51.85296329 143.50034985 49 141 C49 140.34 49 139.68 49 139 C48.01 138.67 47.02 138.34 46 138 C46 137.34 46 136.68 46 136 C45.443125 135.773125 44.88625 135.54625 44.3125 135.3125 C41.33840412 133.62449964 39.27991135 131.53323483 37 129 C37 128.34 37 127.68 37 127 C36.01 126.67 35.02 126.34 34 126 C32.62475586 124.57983398 32.62475586 124.57983398 31.21484375 122.74609375 C30.68914795 122.06482422 30.16345215 121.38355469 29.62182617 120.68164062 C29.06599854 119.94107422 28.5101709 119.20050781 27.9375 118.4375 C27.36040283 117.67244141 26.78330566 116.90738281 26.1887207 116.11914062 C16.79323381 103.50008126 9.25712517 90.42672714 3 76 C2.72704102 75.37802734 2.45408203 74.75605469 2.17285156 74.11523438 C-4.07145817 59.74328787 -12 40.86760322 -12 25 C-11.34 25 -10.68 25 -10 25 C-9.9071875 23.63875 -9.9071875 23.63875 -9.8125 22.25 C-8.6744053 14.26707859 -4.80656453 6.4087527 0 0 Z " fill="#673D96" transform="translate(31,104)"/>
<path d="M0 0 C0.01981934 0.59723877 0.03963867 1.19447754 0.06005859 1.80981445 C1.70033465 49.20110535 10.11081425 96.16432528 45 131 C54.31652932 139.54373244 54.31652932 139.54373244 65.9375 143.25 C66.948125 143.1675 67.95875 143.085 69 143 C69 143.99 69 144.98 69 146 C75.95708517 147.15951419 82.96744152 147.54156692 90 148 C87.02880789 152.15966895 84.00542929 154.52124832 79.625 157.125 C78.52414063 157.78757813 77.42328125 158.45015625 76.2890625 159.1328125 C75.20367187 159.74898437 74.11828125 160.36515625 73 161 C71.46472656 161.89332031 71.46472656 161.89332031 69.8984375 162.8046875 C66.58379769 164.17164138 65.34035261 164.16939411 62 163 C50.06176647 157.20674976 39.57294938 148.04778758 30 139 C29.11570313 138.19175781 28.23140625 137.38351563 27.3203125 136.55078125 C11.75941542 121.80539861 0.65845474 101.86693259 -7 82 C-7.41765625 80.92492187 -7.8353125 79.84984375 -8.265625 78.7421875 C-14.19816975 62.25872455 -17.98248633 44.47711371 -19.578125 27.0390625 C-19.99797073 24.01461823 -20.56849437 21.6963291 -22 19 C-22.99 18.67 -23.98 18.34 -25 18 C-24.67373132 15.06358187 -24.10393359 14.09472914 -21.8828125 12.0703125 C-4.77108434 0 -4.77108434 0 0 0 Z " fill="#75509C" transform="translate(52,84)"/>
<path d="M0 0 C19.8 0 39.6 0 60 0 C60 6.27 60 12.54 60 19 C46.8 19 33.6 19 20 19 C20 25.27 20 31.54 20 38 C30.56 38 41.12 38 52 38 C52.020625 41.114375 52.04125 44.22875 52.0625 47.4375 C52.071604 48.42032959 52.08070801 49.40315918 52.09008789 50.41577148 C52.09258545 51.18477783 52.09508301 51.95378418 52.09765625 52.74609375 C52.10289307 53.53685303 52.10812988 54.3276123 52.11352539 55.14233398 C52 57 52 57 51 58 C48.70848583 58.08790975 46.41427476 58.10694038 44.12109375 58.09765625 C42.86482178 58.09515869 41.6085498 58.09266113 40.31420898 58.09008789 C38.70489502 58.08098389 37.09558105 58.07187988 35.4375 58.0625 C30.343125 58.041875 25.24875 58.02125 20 58 C20 70.54 20 83.08 20 96 C13.4 96 6.8 96 0 96 C0 64.32 0 32.64 0 0 Z " fill="#FFFFFF" transform="translate(409,94)"/>
<path d="M0 0 C3.02959848 1.32783717 4.825697 2.6577001 6.8828125 5.23828125 C7.66615967 6.21112061 7.66615967 6.21112061 8.46533203 7.20361328 C9.28686768 8.24751221 9.28686768 8.24751221 10.125 9.3125 C10.98714111 10.39120361 10.98714111 10.39120361 11.86669922 11.49169922 C16.15279809 16.87283029 20.36003905 22.31367351 24.53515625 27.78125 C27.18465544 31.24984064 29.8681992 34.69113302 32.5625 38.125 C33.24493774 38.99584229 33.24493774 38.99584229 33.94116211 39.88427734 C37.67584738 44.63070457 41.52057686 49.27654984 45.41796875 53.890625 C47 56 47 56 47 58 C16.97 58 -13.06 58 -44 58 C-42.54649394 55.09298787 -41.34217154 52.96561253 -39.41796875 50.453125 C-38.90443848 49.78087891 -38.3909082 49.10863281 -37.86181641 48.41601562 C-37.30929199 47.70123047 -36.75676758 46.98644531 -36.1875 46.25 C-35.61435059 45.50427734 -35.04120117 44.75855469 -34.45068359 43.99023438 C-29.36683562 37.40771183 -24.13237621 30.95326976 -18.8671875 24.515625 C-12.33675684 16.52694283 -6.16955286 8.26804023 0 0 Z " fill="#F2F2F3" transform="translate(116,95)"/>
<path d="M0 0 C23.43 0 46.86 0 71 0 C71 5.94 71 11.88 71 18 C62.42 18 53.84 18 45 18 C45 42.75 45 67.5 45 93 C38.73 93 32.46 93 26 93 C26 68.25 26 43.5 26 18 C17.42 18 8.84 18 0 18 C0 12.06 0 6.12 0 0 Z " fill="#6B439B" transform="translate(761,96)"/>
<path d="M0 0 C0.804375 -0.00128906 1.60875 -0.00257812 2.4375 -0.00390625 C3.283125 -0.00003906 4.12875 0.00382812 5 0.0078125 C6.2684375 0.00201172 6.2684375 0.00201172 7.5625 -0.00390625 C8.366875 -0.00261719 9.17125 -0.00132813 10 0 C10.7425 0.00112793 11.485 0.00225586 12.25 0.00341797 C14 0.1328125 14 0.1328125 15 1.1328125 C15.09522418 3.99373068 15.12553326 6.83044871 15.11352539 9.69165039 C15.11367142 10.58912491 15.11381744 11.48659943 15.1139679 12.41127014 C15.11326842 15.39269384 15.10547441 18.3740559 15.09765625 21.35546875 C15.09579219 23.41670192 15.09436823 25.47793554 15.09336853 27.53916931 C15.08954237 32.9758526 15.07971126 38.41250936 15.06866455 43.84918213 C15.05845253 49.39228964 15.05387136 54.93540142 15.04882812 60.47851562 C15.03808908 71.36329481 15.02049149 82.2480473 15 93.1328125 C8.4 93.1328125 1.8 93.1328125 -5 93.1328125 C-5.02254967 81.15477356 -5.0409143 69.1767486 -5.05181217 57.19869328 C-5.05704134 51.63741839 -5.06413958 46.07615871 -5.07543945 40.51489258 C-5.08626715 35.15273831 -5.09227658 29.79059872 -5.09487724 24.42843437 C-5.09673171 22.37780972 -5.10035272 20.3271859 -5.10573006 18.27656746 C-5.11293893 15.41491047 -5.11399101 12.55331493 -5.11352539 9.69165039 C-5.11712067 8.83497772 -5.12071594 7.97830505 -5.12442017 7.09567261 C-5.11185565 0.00776541 -5.11185565 0.00776541 0 0 Z " fill="#6E47A0" transform="translate(741,95.8671875)"/>
<path d="M0 0 C26.73 0 53.46 0 81 0 C81.99 1.98 81.99 1.98 83 4 C54.95 4 26.9 4 -2 4 C-1.34 2.68 -0.68 1.36 0 0 Z " fill="#4B4B4E" transform="translate(76,153)"/>
<path d="M0 0 C0.66 0.33 1.32 0.66 2 1 C2 1.66 2 2.32 2 3 C2.763125 3.103125 3.52625 3.20625 4.3125 3.3125 C7.27011154 4.0690983 7.99230999 4.81772825 10 7 C12.09989652 8.17574711 12.09989652 8.17574711 14 9 C14 9.66 14 10.32 14 11 C14.99 11 15.98 11 17 11 C17.226875 12.11375 17.45375 13.2275 17.6875 14.375 C18.60623658 18.16038373 18.60623658 18.16038373 21.625 19.4375 C22.40875 19.623125 23.1925 19.80875 24 20 C23.67 21.65 23.34 23.3 23 25 C11.50248671 19.6790578 0.68651349 9.99246754 -7 0 C-4.30919898 -1.34540051 -2.86443593 -0.71610898 0 0 Z " fill="#977BB9" transform="translate(84,217)"/>
<path d="M0 0 C6.51015148 1.67952311 12.80205074 3.94238705 19.0625 6.375 C19.8248999 6.65480713 20.5872998 6.93461426 21.37280273 7.22290039 C23.53515625 8.0859375 23.53515625 8.0859375 27 10 C27.9921875 12.45703125 27.9921875 12.45703125 28 15 C28.03222656 15.73863281 28.06445312 16.47726563 28.09765625 17.23828125 C28.06510417 19.15885417 28.03255208 21.07942708 28 23 C23.91763262 22.46259829 21.96616324 20.36136938 19.0625 17.5625 C14.29519515 13.08509882 9.34697076 9.07864797 4.06469727 5.22485352 C2.67605432 4.19386257 1.33299366 3.10199794 0 2 C0 1.34 0 0.68 0 0 Z " fill="#CABCD8" transform="translate(118,17)"/>
<path d="M0 0 C0.66 0 1.32 0 2 0 C3.65318077 2.11103195 5.15066017 4.20477773 6.625 6.4375 C7.06432861 7.10040039 7.50365723 7.76330078 7.95629883 8.44628906 C11.24203566 13.54069381 14.07869256 18.7802437 16.6875 24.25 C17.03828613 24.97630615 17.38907227 25.7026123 17.75048828 26.45092773 C20.12625276 31.62124173 20.12625276 31.62124173 19 35 C18.50371094 34.31035156 18.00742188 33.62070313 17.49609375 32.91015625 C14.14001611 28.26768832 10.76613989 23.64793048 7.25 19.125 C6.68667969 18.39410156 6.12335938 17.66320312 5.54296875 16.91015625 C3.92836653 14.84245381 3.92836653 14.84245381 1.5625 12.5625 C-0.86899524 8.57484781 -0.31826178 4.5529116 0 0 Z " fill="#531F77" transform="translate(161,48)"/>
<path d="M0 0 C2.64 1.32 5.28 2.64 8 4 C6.54016775 8.62280212 4.77273622 13.06738857 2.90234375 17.53515625 C1.99501496 20.01361713 1.44904611 22.40293953 1 25 C0.34 25 -0.32 25 -1 25 C-4.78629032 8.95334101 -4.78629032 8.95334101 -4 3 C-2 1 -2 1 0 0 Z " fill="#9679B2" transform="translate(20,104)"/>
<path d="M0 0 C-2.3243696 6.9731088 -6.80694152 11.94729445 -12 17 C-12.66 17.99 -13.32 18.98 -14 20 C-17 20 -17 20 -18.6875 18.5 C-19.120625 18.005 -19.55375 17.51 -20 17 C-18.46333594 12.67122738 -15.13249242 10.53988792 -11.5625 7.9375 C-7.20963863 4.77752654 -7.20963863 4.77752654 -3.21484375 1.19140625 C-2 0 -2 0 0 0 Z " fill="#CBBCD7" transform="translate(190,200)"/>
<path d="M0 0 C1.76923828 0.04060547 1.76923828 0.04060547 3.57421875 0.08203125 C4.47785156 0.11683594 5.38148438 0.15164062 6.3125 0.1875 C1.0907154 6.12953075 -6.31955728 11.27459241 -13.6875 14.1875 C-14.6775 13.8575 -15.6675 13.5275 -16.6875 13.1875 C-15.90375 12.836875 -15.12 12.48625 -14.3125 12.125 C-10.83479577 9.55812307 -10.71445353 7.29531412 -9.6875 3.1875 C-7.16245776 -0.60440192 -4.2829647 -0.12721677 0 0 Z " fill="#9E83C7" transform="translate(134.6875,232.8125)"/>
<path d="M0 0 C0.33 0.66 0.66 1.32 1 2 C-3.16878449 8.82935021 -7.64378079 11.97609961 -15 15 C-16.5 13.625 -16.5 13.625 -18 12 C-18 11.34 -18 10.68 -18 10 C-18.66 10 -19.32 10 -20 10 C-19 7 -19 7 -17.15234375 5.83203125 C-16.42144531 5.49558594 -15.69054687 5.15914062 -14.9375 4.8125 C-13.83728516 4.29623047 -13.83728516 4.29623047 -12.71484375 3.76953125 C-12.14894531 3.51558594 -11.58304688 3.26164063 -11 3 C-11 3.66 -11 4.32 -11 5 C-10.01 5.33 -9.02 5.66 -8 6 C-8 6.66 -8 7.32 -8 8 C-4.65001479 6.88333826 -4.20659778 6.25305075 -2.3125 3.4375 C-1.87550781 2.79683594 -1.43851563 2.15617188 -0.98828125 1.49609375 C-0.66214844 1.00238281 -0.33601563 0.50867188 0 0 Z " fill="#997EB5" transform="translate(181,212)"/>
<path d="M0 0 C2.875 0.25 2.875 0.25 6 1 C7.0625 2.9375 7.0625 2.9375 8 5 C9.65438613 5.69658363 11.32254318 6.36096883 13 7 C15.3125 9 15.3125 9 17 11 C17 11.66 17 12.32 17 13 C17.66 13 18.32 13 19 13 C19.33 13.66 19.66 14.32 20 15 C20.99 15.33 21.98 15.66 23 16 C23 16.66 23 17.32 23 18 C18.18134845 17.53251888 15.15970721 15.1879552 11.5 12.25 C10.94441406 11.81945312 10.38882813 11.38890625 9.81640625 10.9453125 C6.30421011 8.18513954 3.0164615 5.30910329 0 2 C0 1.34 0 0.68 0 0 Z " fill="#AF99CB" transform="translate(82,221)"/>
<path d="M0 0 C2.97 0.495 2.97 0.495 6 1 C7.13480527 4.60993172 7.10015767 7.9842327 7.0625 11.75 C7.05347656 12.92046875 7.04445312 14.0909375 7.03515625 15.296875 C7.02355469 16.18890625 7.01195312 17.0809375 7 18 C3.67240077 16.44805246 1.51419515 14.69378051 -1 12 C-0.34 12 0.32 12 1 12 C0.67 8.04 0.34 4.08 0 0 Z " fill="#B09BC5" transform="translate(145,28)"/>
<path d="M0 0 C0.99 0.33 1.98 0.66 3 1 C-8.76595745 18.53191489 -8.76595745 18.53191489 -15 25 C-16 22 -16 22 -15.0625 19.8125 C-14.5365625 18.9153125 -14.5365625 18.9153125 -14 18 C-13.34 18 -12.68 18 -12 18 C-11.59394531 16.90365234 -11.59394531 16.90365234 -11.1796875 15.78515625 C-8.66993803 9.85982059 -4.82907997 4.27187844 0 0 Z " fill="#6F458F" transform="translate(175,192)"/>
<path d="M0 0 C0.66 0.33 1.32 0.66 2 1 C2.33 1.99 2.66 2.98 3 4 C-1.455 6.97 -1.455 6.97 -6 10 C-4.7625 9.938125 -3.525 9.87625 -2.25 9.8125 C0.69257586 9.80728267 1.85646327 9.9210548 4.5 11.375 C6 13 6 13 6 15 C4.68 15.33 3.36 15.66 2 16 C2 15.34 2 14.68 2 14 C-1.3 13.34 -4.6 12.68 -8 12 C-8 8.30650564 -7.11846092 6.99506543 -5 4 C-2.3125 1.6875 -2.3125 1.6875 0 0 Z " fill="#6F418B" transform="translate(146,216)"/>
<path d="M0 0 C2.38564077 0.57584432 4.66682784 1.22227595 7 2 C5.84941444 7.39795989 4.57578241 12.70987333 3 18 C2.34 18 1.68 18 1 18 C0.30739642 11.96445452 -0.11251733 6.07593562 0 0 Z " fill="#BBA9CC" transform="translate(18,111)"/>
<path d="M0 0 C0.66 0.33 1.32 0.66 2 1 C1.33613281 1.59167969 0.67226563 2.18335937 -0.01171875 2.79296875 C-4.44938962 6.7641983 -8.85786795 10.71979688 -13 15 C-15.475 14.01 -15.475 14.01 -18 13 C-18 12.34 -18 11.68 -18 11 C-14.49330886 8.42546727 -10.72094304 6.25057039 -7 4 C-6.2678125 3.54367188 -5.535625 3.08734375 -4.78125 2.6171875 C-3.22735547 1.67563276 -1.61813775 0.82628311 0 0 Z " fill="#5B2D83" transform="translate(48,85)"/>
<path d="M0 0 C2.96404505 2.80804268 5.44499019 5.18315774 7 9 C6.67 9 6.34 9 6 9 C5.67 11.31 5.34 13.62 5 16 C2 16 2 16 -1 14 C-0.67 9.38 -0.34 4.76 0 0 Z " fill="#8768A9" transform="translate(152,34)"/>
<path d="M0 0 C1.13566406 -0.01417969 2.27132812 -0.02835938 3.44140625 -0.04296875 C6.4375 0.1875 6.4375 0.1875 9.4375 2.1875 C9.4375 2.8475 9.4375 3.5075 9.4375 4.1875 C2.8375 4.1875 -3.7625 4.1875 -10.5625 4.1875 C-10.5625 3.1975 -10.5625 2.2075 -10.5625 1.1875 C-7.02160606 0.10000186 -3.6917914 0.02099995 0 0 Z " fill="#55267E" transform="translate(138.5625,227.8125)"/>
<path d="M0 0 C0 0.66 0 1.32 0 2 C0.66 2 1.32 2 2 2 C2 2.66 2 3.32 2 4 C2.99 4.33 3.98 4.66 5 5 C4.67 5.99 4.34 6.98 4 8 C0.9375 9.1875 0.9375 9.1875 -2 10 C-1.67 9.01 -1.34 8.02 -1 7 C-1.66 7 -2.32 7 -3 7 C-3 6.34 -3 5.68 -3 5 C-4.32 5 -5.64 5 -7 5 C-6 2 -6 2 -4.0625 0.8125 C-2 0 -2 0 0 0 Z " fill="#8767A7" transform="translate(161,220)"/>
<path d="M0 0 C1.33641852 0.32074044 2.66869885 0.65864073 4 1 C5.794375 1.309375 5.794375 1.309375 7.625 1.625 C8.73875 2.07875 9.8525 2.5325 11 3 C11.74259349 5.31029085 12.411438 7.645752 13 10 C15.49641128 11.51792644 15.49641128 11.51792644 18 12 C17.67 13.65 17.34 15.3 17 17 C15.68 16.34 14.36 15.68 13 15 C13.66 14.67 14.32 14.34 15 14 C15 13.34 15 12.68 15 12 C13.68 11.67 12.36 11.34 11 11 C11 10.34 11 9.68 11 9 C10.34 9 9.68 9 9 9 C7.66104368 7.33784732 6.32869858 5.67036393 5 4 C3.36643049 2.62631655 1.7074998 1.28062485 0 0 Z " fill="#9E84C1" transform="translate(90,225)"/>
<path d="M0 0 C0.66 0 1.32 0 2 0 C3.2890625 1.75 3.2890625 1.75 4.625 4 C5.07101563 4.7425 5.51703125 5.485 5.9765625 6.25 C6.31429687 6.8275 6.65203125 7.405 7 8 C6.01 8.495 6.01 8.495 5 9 C5 10.98 5 12.96 5 15 C2.78929659 13.34197245 1.44182319 12.30185808 0 10 C-0.43788102 6.62574035 -0.29562191 3.38322853 0 0 Z " fill="#63398B" transform="translate(161,48)"/>
<path d="M0 0 C4.55015893 1.51671964 6.50057264 5.16891053 9 9 C8.01 10.485 8.01 10.485 7 12 C6.938125 11.38125 6.87625 10.7625 6.8125 10.125 C6.1647963 7.76275746 6.1647963 7.76275746 3.625 6.625 C2.75875 6.41875 1.8925 6.2125 1 6 C0.01 6.66 -0.98 7.32 -2 8 C-2 7.34 -2 6.68 -2 6 C-2.66 5.67 -3.32 5.34 -4 5 C-2.68 3.35 -1.36 1.7 0 0 Z " fill="#E7E6ED" transform="translate(116,95)"/>
<path d="M0 0 C3.93383553 0.5619765 6.87020891 1.49616713 10 4 C10.3125 6.6875 10.3125 6.6875 10 9 C5.58968355 8.49111733 3.10672401 5.96550928 0 3 C0 2.01 0 1.02 0 0 Z " fill="#F3F0F6" transform="translate(126,22)"/>
<path d="M0 0 C1.65 1.32 3.3 2.64 5 4 C4.67 5.98 4.34 7.96 4 10 C1.36 8.68 -1.28 7.36 -4 6 C-2 2 -2 2 0 0 Z " fill="#8868AB" transform="translate(25,99)"/>
<path d="M0 0 C2.31 0.66 4.62 1.32 7 2 C5.1875 5 5.1875 5 3 8 C0 8 0 8 -1.6875 6.5 C-2.120625 6.005 -2.55375 5.51 -3 5 C-1.125 1.125 -1.125 1.125 0 0 Z " fill="#BCAACD" transform="translate(173,212)"/>
<path d="M0 0 C0.99 0.33 1.98 0.66 3 1 C4.10228696 5.40914783 4.07654536 9.48382401 4 14 C2.0625 13.625 2.0625 13.625 0 13 C-0.33 12.34 -0.66 11.68 -1 11 C-0.34 11 0.32 11 1 11 C0.67 7.37 0.34 3.74 0 0 Z " fill="#BDABCF" transform="translate(142,26)"/>
<path d="M0 0 C1.9375 0.8125 1.9375 0.8125 4 2 C5.14077657 5.42232972 5.09815117 8.08673217 5.0625 11.6875 C5.05347656 12.86699219 5.04445312 14.04648437 5.03515625 15.26171875 C5.02355469 16.16535156 5.01195312 17.06898437 5 18 C4.34 18 3.68 18 3 18 C2.86722656 16.95199219 2.73445312 15.90398438 2.59765625 14.82421875 C2.41942765 13.44529222 2.24103359 12.06638707 2.0625 10.6875 C1.97548828 9.99720703 1.88847656 9.30691406 1.79882812 8.59570312 C1.40789865 5.59857712 0.9584996 2.87549881 0 0 Z " fill="#9D84BB" transform="translate(147,28)"/>
<path d="M0 0 C2.97 0 5.94 0 9 0 C4.68037975 4.93670886 4.68037975 4.93670886 1.3125 5.25 C0.549375 5.1675 -0.21375 5.085 -1 5 C-1.99 5.495 -1.99 5.495 -3 6 C-2 4 -1 2 0 0 Z " fill="#B29DD4" transform="translate(132,233)"/>
<path d="M0 0 C0 0.66 0 1.32 0 2 C-1.32 2.33 -2.64 2.66 -4 3 C-4 2.34 -4 1.68 -4 1 C-7.3 0.34 -10.6 -0.32 -14 -1 C-14 -1.33 -14 -1.66 -14 -2 C-8.34383017 -3.1838495 -4.8710274 -3.2473516 0 0 Z " fill="#643B8C" transform="translate(152,229)"/>
<path d="M0 0 C2.66666667 0.66666667 5.33333333 1.33333333 8 2 C8 2.99 8 3.98 8 5 C3.49646738 6.75747614 -0.17639811 7.19294408 -5 7 C-5 6.67 -5 6.34 -5 6 C-0.545 5.505 -0.545 5.505 4 5 C2.68 3.35 1.36 1.7 0 0 Z " fill="#704A9C" transform="translate(148,226)"/>
<path d="M0 0 C1.32 0 2.64 0 4 0 C3.67 1.65 3.34 3.3 3 5 C0.69 5.33 -1.62 5.66 -4 6 C-2.25 3 -2.25 3 0 0 Z " fill="#906EA6" transform="translate(149,219)"/>
<path d="M0 0 C0.66 0.33 1.32 0.66 2 1 C2 1.66 2 2.32 2 3 C2.66 3.33 3.32 3.66 4 4 C3.01 4.99 2.02 5.98 1 7 C-1.475 6.01 -1.475 6.01 -4 5 C-4 4.34 -4 3.68 -4 3 C-2 1.375 -2 1.375 0 0 Z " fill="#673F8E" transform="translate(34,93)"/>
<path d="M0 0 C1.485 0.99 1.485 0.99 3 2 C3.29296875 4.6015625 3.29296875 4.6015625 3.1875 7.625 C3.16042969 8.62789062 3.13335937 9.63078125 3.10546875 10.6640625 C3.07066406 11.43492188 3.03585938 12.20578125 3 13 C1.68 12.67 0.36 12.34 -1 12 C-0.67 8.04 -0.34 4.08 0 0 Z " fill="#9276B1" transform="translate(152,34)"/>
<path d="M0 0 C3.3 0.99 6.6 1.98 10 3 C10 3.66 10 4.32 10 5 C9.34 5 8.68 5 8 5 C8 5.66 8 6.32 8 7 C5.05043472 5.63055898 2.47531189 4.12169591 0 2 C0 1.34 0 0.68 0 0 Z " fill="#D7CDE1" transform="translate(118,17)"/>
<path d="M0 0 C0 2.31 0 4.62 0 7 C-1.98 7 -3.96 7 -6 7 C-5.60799596 4.15797072 -5.2043974 3.17884772 -3 1.25 C-1 0 -1 0 0 0 Z " fill="#805EB7" transform="translate(756,182)"/>
<path d="M0 0 C1.32 0.66 2.64 1.32 4 2 C4 3.65 4 5.3 4 7 C1.36 6.01 -1.28 5.02 -4 4 C-3.67 3.34 -3.34 2.68 -3 2 C-2.01 2 -1.02 2 0 2 C0 1.34 0 0.68 0 0 Z " fill="#A38BBA" transform="translate(22,107)"/>
<path d="M0 0 C2.475 0.99 2.475 0.99 5 2 C4.67 3.65 4.34 5.3 4 7 C2.68 7.33 1.36 7.66 0 8 C-0.33 7.34 -0.66 6.68 -1 6 C-0.34 6 0.32 6 1 6 C0.67 4.02 0.34 2.04 0 0 Z " fill="#DCD2E5" transform="translate(135,25)"/>
<path d="M0 0 C2.72106694 2.72106694 2.60655572 4.84776311 3.125 8.625 C3.29257813 9.81351563 3.46015625 11.00203125 3.6328125 12.2265625 C3.75398437 13.14179687 3.87515625 14.05703125 4 15 C3.01 15 2.02 15 1 15 C0.34 14.34 -0.32 13.68 -1 13 C-0.34 13 0.32 13 1 13 C0.67 8.71 0.34 4.42 0 0 Z " fill="#A891BE" transform="translate(147,29)"/>
<path d="M0 0 C0.66 0 1.32 0 2 0 C4 3 4 3 3.8125 5.0625 C3 7 3 7 0 9 C0 6.03 0 3.06 0 0 Z " fill="#7B57B0" transform="translate(888,173)"/>
<path d="M0 0 C3.71599191 -0.20086443 4.77208445 -0.1519437 8 2 C8 2.66 8 3.32 8 4 C5.69 4 3.38 4 1 4 C0.67 2.68 0.34 1.36 0 0 Z " fill="#592C83" transform="translate(140,228)"/>
<path d="M0 0 C0.8971875 0.5259375 0.8971875 0.5259375 1.8125 1.0625 C-4.9375 5.0625 -4.9375 5.0625 -7.1875 5.0625 C-6.375 2.625 -6.375 2.625 -5.1875 0.0625 C-2.1875 -0.9375 -2.1875 -0.9375 0 0 Z " fill="#A58CCC" transform="translate(133.1875,237.9375)"/>
<path d="M0 0 C2.875 0.3125 2.875 0.3125 6 1 C6.66 1.99 7.32 2.98 8 4 C5.6875 4.6875 5.6875 4.6875 3 5 C1.1875 3.6875 1.1875 3.6875 0 2 C0 1.34 0 0.68 0 0 Z " fill="#A78FC4" transform="translate(82,221)"/>
<path d="M0 0 C2.88437779 1.29299694 4.87219421 2.65941363 7 5 C6.67 5.99 6.34 6.98 6 8 C5.34 7.67 4.68 7.34 4 7 C4.33 6.34 4.66 5.68 5 5 C4.34 5 3.68 5 3 5 C3 4.34 3 3.68 3 3 C1.68 3 0.36 3 -1 3 C-0.67 2.01 -0.34 1.02 0 0 Z " fill="#805EA4" transform="translate(155,222)"/>
<path d="M0 0 C0.103125 0.598125 0.20625 1.19625 0.3125 1.8125 C1.08876455 4.28243264 2.07088921 5.32251235 4 7 C2.1875 7.6875 2.1875 7.6875 0 8 C-1.75 6.5625 -1.75 6.5625 -3 5 C-1.125 1.125 -1.125 1.125 0 0 Z " fill="#B19CC5" transform="translate(173,212)"/>
<path d="M0 0 C0.66 0 1.32 0 2 0 C3.35015859 4.05047576 2.62084998 6.7920168 2 11 C1.34 10.67 0.68 10.34 0 10 C0 6.7 0 3.4 0 0 Z " fill="#694190" transform="translate(161,48)"/>
<path d="M0 0 C2.875 -0.1875 2.875 -0.1875 6 0 C6.66 0.99 7.32 1.98 8 3 C5.36 3 2.72 3 0 3 C0 2.01 0 1.02 0 0 Z " fill="#511D77" transform="translate(128,229)"/>
<path d="M0 0 C0.66 0.33 1.32 0.66 2 1 C2 1.99 2 2.98 2 4 C-0.64 4.33 -3.28 4.66 -6 5 C-2.25 1.125 -2.25 1.125 0 0 Z " fill="#815A9B" transform="translate(145,222)"/>
<path d="M0 0 C0.66 0.66 1.32 1.32 2 2 C0.02 3.32 -1.96 4.64 -4 6 C-4.66 5.67 -5.32 5.34 -6 5 C-4.02 3.35 -2.04 1.7 0 0 Z " fill="#784D92" transform="translate(147,218)"/>
<path d="M0 0 C0.99 0.33 1.98 0.66 3 1 C2.67 3.64 2.34 6.28 2 9 C1.34 9 0.68 9 0 9 C0 6.03 0 3.06 0 0 Z " fill="#CCBDD7" transform="translate(19,120)"/>
<path d="M0 0 C0.66 0.66 1.32 1.32 2 2 C-0.31 2.33 -2.62 2.66 -5 3 C-5.66 2.01 -6.32 1.02 -7 0 C-4.29393021 -1.35303489 -2.8671629 -0.7884698 0 0 Z " fill="#9072B3" transform="translate(84,217)"/>
<path d="M0 0 C0.66 0 1.32 0 2 0 C4.42857143 6.28571429 4.42857143 6.28571429 3 10 C0 3.375 0 3.375 0 0 Z " fill="#7F5D9F" transform="translate(42,154)"/>
<path d="M0 0 C2.475 0.99 2.475 0.99 5 2 C5 3.32 5 4.64 5 6 C4.34 6 3.68 6 3 6 C1.61767557 4.37373596 0.28062485 2.7074998 -1 1 C-0.67 0.67 -0.34 0.34 0 0 Z " fill="#8261A1" transform="translate(25,101)"/>
<path d="M0 0 C2.38564077 0.57584432 4.66682784 1.22227595 7 2 C7 2.99 7 3.98 7 5 C2.25 3.125 2.25 3.125 0 2 C0 1.34 0 0.68 0 0 Z " fill="#B09BC4" transform="translate(18,111)"/>
<path d="M0 0 C0.99 0.33 1.98 0.66 3 1 C3.33 1.99 3.66 2.98 4 4 C3.34 4 2.68 4 2 4 C1.67 4.99 1.34 5.98 1 7 C0 6 0 6 -0.0625 2.9375 C-0.041875 1.968125 -0.02125 0.99875 0 0 Z " fill="#592D84" transform="translate(164,53)"/>
</svg>
